<svg xmlns="http://www.w3.org/2000/svg" xmlns:xlink="http://www.w3.org/1999/xlink" xmlns:lucid="lucid" width="1162" height="420"><g transform="translate(-69 -20)" lucid:page-tab-id="0_0"><path d="M140 220h160v120c-26.72-20.04-43.36-20.04-53.44-20.04-16 0-37.28 20.04-53.28 20.04-9.92 0-26.72 0-53.28-20.04z" stroke="#000" stroke-width="2" fill="#fff"/><use xlink:href="#a" transform="matrix(1,0,0,1,145,225) translate(9.549999999999997 48.6)"/><path d="M268 40c17.67 0 32 17.9 32 40s-14.33 40-32 40h-96c-17.67 0-32-17.9-32-40s14.33-40 32-40z" stroke="#000" stroke-width="2" fill="#fff"/><use xlink:href="#b" transform="matrix(1,0,0,1,145,45) translate(54.5 38.6)"/><path d="M221 200.76h-2v-41.3h2zm0-62.9h-2V121h2zM221 121h-2v-1h2zM220 215.76l-4.64-14.26h9.28z"/><path d="M220 219l-6-18.5h12zm-3.26-16.5l3.26 10.03 3.26-10.03z"/><use xlink:href="#c" transform="matrix(1,0,0,1,193.05,137.86666666666665) translate(0 14.4)"/><path d="M90 181H80v-2h10zm30 0h-20v-2h20zm30 0h-20v-2h20zm30 0h-20v-2h20zm30 0h-20v-2h20zm30 0h-20v-2h20zm30 0h-20v-2h20zm30 0h-20v-2h20zm30 0h-20v-2h20zm30 0h-20v-2h20zm30 0h-20v-2h20zm30 0h-20v-2h20zm30 0h-20v-2h20zm30 0h-20v-2h20zm30 0h-20v-2h20zm30 0h-20v-2h20zm30 0h-20v-2h20zm30 0h-20v-2h20zm30 0h-20v-2h20zm30 0h-20v-2h20zm30 0h-20v-2h20zm30 0h-20v-2h20zm30 0h-20v-2h20zm30 0h-20v-2h20zm30 0h-20v-2h20zm30 0h-20v-2h20zm30 0h-20v-2h20zm30 0h-20v-2h20zm30 0h-20v-2h20zm30 0h-20v-2h20zm30 0h-20v-2h20zm30 0h-20v-2h20zm30 0h-20v-2h20zm30 0h-20v-2h20zm30 0h-20v-2h20zm30 0h-20v-2h20zm30 0h-20v-2h20zm30 0h-20v-2h20zm20 0h-10v-2h10z"/><use xlink:href="#d" transform="matrix(1,0,0,1,84.43863636363636,154.39999999999998) translate(0 14.4)"/><use xlink:href="#e" transform="matrix(1,0,0,1,85.18863636363636,184) translate(0 14.4)"/><path d="M400 220l60 60-60 60-60-60z" stroke="#000" stroke-width="2" fill="#fff"/><use xlink:href="#f" transform="matrix(1,0,0,1,345,225) translate(22.525 58.6)"/><path d="M301 280h37.6" stroke="#000" stroke-width="2" fill="none"/><path d="M301 281h-1v-2h1zM340 280l1 1h-2.4v-2h2.4zM401 200.35h-2V152.5h2zm0-69.46h-2V81h-98v-2h100zM301 81h-1.06l.06-1-.04-1H301zM400 215.35l-4.64-14.27h9.28z"/><path d="M400 218.6l-6-18.52h12zm-3.26-16.52L400 212.1l3.26-10.02z"/><use xlink:href="#g" transform="matrix(1,0,0,1,365.55,130.894960580582) translate(0 14.4)"/><path d="M600 300h160v120c-26.72-20.04-43.36-20.04-53.44-20.04-16 0-37.28 20.04-53.28 20.04-9.92 0-26.72 0-53.28-20.04z" stroke="#000" stroke-width="2" fill="#fff"/><use xlink:href="#h" transform="matrix(1,0,0,1,605,305) translate(34.05 48.6)"/><path d="M580 260h160v120c-26.72-20.04-43.36-20.04-53.44-20.04-16 0-37.28 20.04-53.28 20.04-9.92 0-26.72 0-53.28-20.04z" stroke="#000" stroke-width="2" fill="#fff"/><use xlink:href="#h" transform="matrix(1,0,0,1,585,265) translate(34.05 48.6)"/><path d="M560 220h160v120c-26.72-20.04-43.36-20.04-53.44-20.04-16 0-37.28 20.04-53.28 20.04-9.92 0-26.72 0-53.28-20.04z" stroke="#000" stroke-width="2" fill="#fff"/><use xlink:href="#i" transform="matrix(1,0,0,1,565,225) translate(6.450000000000003 48.6)"/><path d="M470.22 281h-8.8v-2h8.8zm70.54 0h-16.64v-2h16.64zM461.4 281H459l1-1-1-1h2.4zM555.76 280l-14.26 4.64v-9.28z"/><path d="M559 280l-18.5 6v-12zm-16.5 3.26l10.03-3.26-10.03-3.26z"/><use xlink:href="#c" transform="matrix(1,0,0,1,470.2233887951144,269.2) translate(0 14.4)"/><path d="M888 40c17.67 0 32 17.9 32 40s-14.33 40-32 40h-96c-17.67 0-32-17.9-32-40s14.33-40 32-40z" stroke="#000" stroke-width="2" fill="#fff"/><use xlink:href="#j" transform="matrix(1,0,0,1,765,45) translate(44.9 27.799999999999997)"/><use xlink:href="#k" transform="matrix(1,0,0,1,765,45) translate(28.074999999999996 49.4)"/><path d="M900 300l80 60-80 60-80-60z" stroke="#000" stroke-width="2" fill="#fff"/><use xlink:href="#l" transform="matrix(1,0,0,1,825,305) translate(47.5 58.6)"/><path d="M880 260l80 60-80 60-80-60z" stroke="#000" stroke-width="2" fill="#fff"/><use xlink:href="#l" transform="matrix(1,0,0,1,805,265) translate(47.5 58.6)"/><path d="M860 220l80 60-80 60-80-60z" stroke="#000" stroke-width="2" fill="#fff"/><use xlink:href="#l" transform="matrix(1,0,0,1,785,225) translate(47.5 58.6)"/><path d="M721 280h57.33" stroke="#000" stroke-width="2" fill="none"/><path d="M721 281h-1v-2h1zM780 280l1.33 1h-3v-2h3z"/><path d="M908 60c17.67 0 32 17.9 32 40s-14.33 40-32 40h-96c-17.67 0-32-17.9-32-40s14.33-40 32-40z" stroke="#000" stroke-width="2" fill="#fff"/><use xlink:href="#j" transform="matrix(1,0,0,1,785,65) translate(44.9 27.799999999999997)"/><use xlink:href="#k" transform="matrix(1,0,0,1,785,65) translate(28.074999999999996 49.4)"/><path d="M861 200.5h-2v-27.7h2zm0-49.3h-2V141h2zM861 141h-2v-1h2zM860 215.5l-4.64-14.25h9.28z"/><path d="M860 218.75l-6-18.5h12zm-3.26-16.5l3.26 10.03 3.26-10.03z"/><use xlink:href="#g" transform="matrix(1,0,0,1,825.55,151.2) translate(0 14.4)"/><path d="M741 320h57.33" stroke="#000" stroke-width="2" fill="none"/><path d="M741 321h-1v-2h1zM800 320l1.33 1h-3v-2h3z"/><path d="M761 360h57.33" stroke="#000" stroke-width="2" fill="none"/><path d="M761 361h-1v-2h1zM820 360l1.33 1h-3v-2h3zM950.38 281h-8.7v-2h8.7zm70.38 0h-16.48v-2h16.48zM941.67 281h-3l1.33-1-1.33-1h3zM1035.76 280l-14.26 4.64v-9.28z"/><path d="M1039 280l-18.5 6v-12zm-16.5 3.26l10.03-3.26-10.03-3.26z"/><use xlink:href="#c" transform="matrix(1,0,0,1,950.3833333333333,269.2) translate(0 14.4)"/><path d="M1180 320c0 27.6-22.4 50-50 50s-50-22.4-50-50 22.4-50 50-50 50 22.4 50 50z" stroke="#000" stroke-width="2" fill="#fff"/><use xlink:href="#m" transform="matrix(1,0,0,1,1085,275) translate(22.5 48.6)"/><path d="M1160 300c0 27.6-22.4 50-50 50s-50-22.4-50-50 22.4-50 50-50 50 22.4 50 50z" stroke="#000" stroke-width="2" fill="#fff"/><use xlink:href="#m" transform="matrix(1,0,0,1,1065,255) translate(22.5 48.6)"/><path d="M1140 280c0 27.6-22.4 50-50 50s-50-22.4-50-50 22.4-50 50-50 50 22.4 50 50z" stroke="#000" stroke-width="2" fill="#fff"/><g><use xlink:href="#m" transform="matrix(1,0,0,1,1045,235) translate(22.5 48.6)"/></g><defs><path d="M240 0l2-218c-23 76-54 145-80 218h-23L58-218 59 0H30v-248h44l77 211c21-75 51-140 76-211h43V0h-30" id="n"/><path d="M141-36C126-15 110 5 73 4 37 3 15-17 15-53c-1-64 63-63 125-63 3-35-9-54-41-54-24 1-41 7-42 31l-33-3c5-37 33-52 76-52 45 0 72 20 72 64v82c-1 20 7 32 28 27v20c-31 9-61-2-59-35zM48-53c0 20 12 33 32 33 41-3 63-29 60-74-43 2-92-5-92 41" id="o"/><path d="M114-163C36-179 61-72 57 0H25l-1-190h30c1 12-1 29 2 39 6-27 23-49 58-41v29" id="p"/><path d="M143 0L79-87 56-68V0H24v-261h32v163l83-92h37l-77 82L181 0h-38" id="q"/><path d="M100-194c63 0 86 42 84 106H49c0 40 14 67 53 68 26 1 43-12 49-29l28 8c-11 28-37 45-77 45C44 4 14-33 15-96c1-61 26-98 85-98zm52 81c6-60-76-77-97-28-3 7-6 17-6 28h103" id="r"/><path d="M59-47c-2 24 18 29 38 22v24C64 9 27 4 27-40v-127H5v-23h24l9-43h21v43h35v23H59v120" id="s"/><path d="M185-189c-5-48-123-54-124 2 14 75 158 14 163 119 3 78-121 87-175 55-17-10-28-26-33-46l33-7c5 56 141 63 141-1 0-78-155-14-162-118-5-82 145-84 179-34 5 7 8 16 11 25" id="t"/><path d="M84 4C-5 8 30-112 23-190h32v120c0 31 7 50 39 49 72-2 45-101 50-169h31l1 190h-30c-1-10 1-25-2-33-11 22-28 36-60 37" id="u"/><path d="M115-194c55 1 70 41 70 98S169 2 115 4C84 4 66-9 55-30l1 105H24l-1-265h31l2 30c10-21 28-34 59-34zm-8 174c40 0 45-34 45-75s-6-73-45-74c-42 0-51 32-51 76 0 43 10 73 51 73" id="v"/><path d="M153-248C145-148 188 4 80 4 36 3 13-21 6-62l32-5c4 25 16 42 43 43 27 0 39-20 39-49v-147H72v-28h81" id="w"/><path d="M100-194c62-1 85 37 85 99 1 63-27 99-86 99S16-35 15-95c0-66 28-99 85-99zM99-20c44 1 53-31 53-75 0-43-8-75-51-75s-53 32-53 75 10 74 51 75" id="x"/><path d="M115-194c53 0 69 39 70 98 0 66-23 100-70 100C84 3 66-7 56-30L54 0H23l1-261h32v101c10-23 28-34 59-34zm-8 174c40 0 45-34 45-75 0-40-5-75-45-74-42 0-51 32-51 76 0 43 10 73 51 73" id="y"/><g id="a"><use transform="matrix(0.05,0,0,0.05,0,0)" xlink:href="#n"/><use transform="matrix(0.05,0,0,0.05,14.950000000000001,0)" xlink:href="#o"/><use transform="matrix(0.05,0,0,0.05,24.950000000000003,0)" xlink:href="#p"/><use transform="matrix(0.05,0,0,0.05,30.900000000000002,0)" xlink:href="#q"/><use transform="matrix(0.05,0,0,0.05,39.900000000000006,0)" xlink:href="#r"/><use transform="matrix(0.05,0,0,0.05,49.900000000000006,0)" xlink:href="#s"/><use transform="matrix(0.05,0,0,0.05,54.900000000000006,0)" xlink:href="#t"/><use transform="matrix(0.05,0,0,0.05,66.9,0)" xlink:href="#r"/><use transform="matrix(0.05,0,0,0.05,76.9,0)" xlink:href="#s"/><use transform="matrix(0.05,0,0,0.05,81.9,0)" xlink:href="#u"/><use transform="matrix(0.05,0,0,0.05,91.9,0)" xlink:href="#v"/><use transform="matrix(0.05,0,0,0.05,101.9,0)" xlink:href="#w"/><use transform="matrix(0.05,0,0,0.05,110.9,0)" xlink:href="#x"/><use transform="matrix(0.05,0,0,0.05,120.9,0)" xlink:href="#y"/></g><path d="M160-131c35 5 61 23 61 61C221 17 115-2 30 0v-248c76 3 177-17 177 60 0 33-19 50-47 57zm-97-11c50-1 110 9 110-42 0-47-63-36-110-37v79zm0 115c55-2 124 14 124-45 0-56-70-42-124-44v89" id="z"/><path d="M117-194c89-4 53 116 60 194h-32v-121c0-31-8-49-39-48C34-167 62-67 57 0H25l-1-190h30c1 10-1 24 2 32 11-22 29-35 61-36" id="A"/><g id="b"><use transform="matrix(0.05,0,0,0.05,0,0)" xlink:href="#z"/><use transform="matrix(0.05,0,0,0.05,12,0)" xlink:href="#o"/><use transform="matrix(0.05,0,0,0.05,22,0)" xlink:href="#A"/><use transform="matrix(0.05,0,0,0.05,32,0)" xlink:href="#q"/></g><path d="M212-179c-10-28-35-45-73-45-59 0-87 40-87 99 0 60 29 101 89 101 43 0 62-24 78-52l27 14C228-24 195 4 139 4 59 4 22-46 18-125c-6-104 99-153 187-111 19 9 31 26 39 46" id="B"/><g id="c"><use transform="matrix(0.05,0,0,0.05,0,0)" xlink:href="#B"/><use transform="matrix(0.05,0,0,0.05,12.950000000000001,0)" xlink:href="#p"/><use transform="matrix(0.05,0,0,0.05,18.900000000000002,0)" xlink:href="#r"/><use transform="matrix(0.05,0,0,0.05,28.900000000000002,0)" xlink:href="#o"/><use transform="matrix(0.05,0,0,0.05,38.900000000000006,0)" xlink:href="#s"/><use transform="matrix(0.05,0,0,0.05,43.900000000000006,0)" xlink:href="#r"/></g><path d="M205 0l-28-72H64L36 0H1l101-248h38L239 0h-34zm-38-99l-47-123c-12 45-31 82-46 123h93" id="C"/><path d="M24 0v-261h32V0H24" id="D"/><path d="M24-231v-30h32v30H24zM24 0v-190h32V0H24" id="E"/><path d="M96-169c-40 0-48 33-48 73s9 75 48 75c24 0 41-14 43-38l32 2c-6 37-31 61-74 61-59 0-76-41-82-99-10-93 101-131 147-64 4 7 5 14 7 22l-32 3c-4-21-16-35-41-35" id="F"/><g id="d"><use transform="matrix(0.05,0,0,0.05,0,0)" xlink:href="#C"/><use transform="matrix(0.05,0,0,0.05,12,0)" xlink:href="#v"/><use transform="matrix(0.05,0,0,0.05,22,0)" xlink:href="#v"/><use transform="matrix(0.05,0,0,0.05,32,0)" xlink:href="#D"/><use transform="matrix(0.05,0,0,0.05,35.95,0)" xlink:href="#E"/><use transform="matrix(0.05,0,0,0.05,39.900000000000006,0)" xlink:href="#F"/><use transform="matrix(0.05,0,0,0.05,48.900000000000006,0)" xlink:href="#o"/><use transform="matrix(0.05,0,0,0.05,58.900000000000006,0)" xlink:href="#s"/><use transform="matrix(0.05,0,0,0.05,63.900000000000006,0)" xlink:href="#E"/><use transform="matrix(0.05,0,0,0.05,67.85000000000001,0)" xlink:href="#x"/><use transform="matrix(0.05,0,0,0.05,77.85000000000001,0)" xlink:href="#A"/></g><path d="M30 0v-248h33v221h125V0H30" id="G"/><path d="M85-194c31 0 48 13 60 33l-1-100h32l1 261h-30c-2-10 0-23-3-31C134-8 116 4 85 4 32 4 16-35 15-94c0-66 23-100 70-100zm9 24c-40 0-46 34-46 75 0 40 6 74 45 74 42 0 51-32 51-76 0-42-9-74-50-73" id="H"/><path d="M177-190C167-65 218 103 67 71c-23-6-38-20-44-43l32-5c15 47 100 32 89-28v-30C133-14 115 1 83 1 29 1 15-40 15-95c0-56 16-97 71-98 29-1 48 16 59 35 1-10 0-23 2-32h30zM94-22c36 0 50-32 50-73 0-42-14-75-50-75-39 0-46 34-46 75s6 73 46 73" id="I"/><g id="e"><use transform="matrix(0.05,0,0,0.05,0,0)" xlink:href="#G"/><use transform="matrix(0.05,0,0,0.05,10,0)" xlink:href="#r"/><use transform="matrix(0.05,0,0,0.05,20,0)" xlink:href="#H"/><use transform="matrix(0.05,0,0,0.05,30,0)" xlink:href="#I"/><use transform="matrix(0.05,0,0,0.05,40,0)" xlink:href="#r"/><use transform="matrix(0.05,0,0,0.05,50,0)" xlink:href="#p"/></g><path d="M30-248c87 1 191-15 191 75 0 78-77 80-158 76V0H30v-248zm33 125c57 0 124 11 124-50 0-59-68-47-124-48v98" id="J"/><path d="M135-143c-3-34-86-38-87 0 15 53 115 12 119 90S17 21 10-45l28-5c4 36 97 45 98 0-10-56-113-15-118-90-4-57 82-63 122-42 12 7 21 19 24 35" id="K"/><g id="f"><use transform="matrix(0.05,0,0,0.05,0,0)" xlink:href="#J"/><use transform="matrix(0.05,0,0,0.05,12,0)" xlink:href="#p"/><use transform="matrix(0.05,0,0,0.05,17.95,0)" xlink:href="#x"/><use transform="matrix(0.05,0,0,0.05,27.950000000000003,0)" xlink:href="#F"/><use transform="matrix(0.05,0,0,0.05,36.95,0)" xlink:href="#r"/><use transform="matrix(0.05,0,0,0.05,46.95,0)" xlink:href="#K"/><use transform="matrix(0.05,0,0,0.05,55.95,0)" xlink:href="#K"/></g><path d="M30 0v-248h187v28H63v79h144v27H63v87h162V0H30" id="L"/><path d="M141 0L90-78 38 0H4l68-98-65-92h35l48 74 47-74h35l-64 92 68 98h-35" id="M"/><g id="g"><use transform="matrix(0.05,0,0,0.05,0,0)" xlink:href="#L"/><use transform="matrix(0.05,0,0,0.05,12,0)" xlink:href="#M"/><use transform="matrix(0.05,0,0,0.05,21,0)" xlink:href="#r"/><use transform="matrix(0.05,0,0,0.05,31,0)" xlink:href="#p"/><use transform="matrix(0.05,0,0,0.05,36.95,0)" xlink:href="#F"/><use transform="matrix(0.05,0,0,0.05,45.95,0)" xlink:href="#E"/><use transform="matrix(0.05,0,0,0.05,49.900000000000006,0)" xlink:href="#K"/><use transform="matrix(0.05,0,0,0.05,58.900000000000006,0)" xlink:href="#r"/></g><path d="M30-248c118-7 216 8 213 122C240-48 200 0 122 0H30v-248zM63-27c89 8 146-16 146-99s-60-101-146-95v194" id="N"/><path d="M210-169c-67 3-38 105-44 169h-31v-121c0-29-5-50-35-48C34-165 62-65 56 0H25l-1-190h30c1 10-1 24 2 32 10-44 99-50 107 0 11-21 27-35 58-36 85-2 47 119 55 194h-31v-121c0-29-5-49-35-48" id="O"/><g id="h"><use transform="matrix(0.05,0,0,0.05,0,0)" xlink:href="#N"/><use transform="matrix(0.05,0,0,0.05,12.950000000000001,0)" xlink:href="#x"/><use transform="matrix(0.05,0,0,0.05,22.950000000000003,0)" xlink:href="#F"/><use transform="matrix(0.05,0,0,0.05,31.950000000000003,0)" xlink:href="#u"/><use transform="matrix(0.05,0,0,0.05,41.95,0)" xlink:href="#O"/><use transform="matrix(0.05,0,0,0.05,56.900000000000006,0)" xlink:href="#r"/><use transform="matrix(0.05,0,0,0.05,66.9,0)" xlink:href="#A"/><use transform="matrix(0.05,0,0,0.05,76.9,0)" xlink:href="#s"/></g><path d="M127-220V0H93v-220H8v-28h204v28h-85" id="P"/><path d="M101-234c-31-9-42 10-38 44h38v23H63V0H32v-167H5v-23h27c-7-52 17-82 69-68v24" id="Q"/><g id="i"><use transform="matrix(0.05,0,0,0.05,0,0)" xlink:href="#P"/><use transform="matrix(0.05,0,0,0.05,10.3,0)" xlink:href="#p"/><use transform="matrix(0.05,0,0,0.05,16.25,0)" xlink:href="#o"/><use transform="matrix(0.05,0,0,0.05,26.25,0)" xlink:href="#A"/><use transform="matrix(0.05,0,0,0.05,36.25,0)" xlink:href="#K"/><use transform="matrix(0.05,0,0,0.05,45.25,0)" xlink:href="#Q"/><use transform="matrix(0.05,0,0,0.05,50.25,0)" xlink:href="#r"/><use transform="matrix(0.05,0,0,0.05,60.25,0)" xlink:href="#p"/><use transform="matrix(0.05,0,0,0.05,66.2,0)" xlink:href="#J"/><use transform="matrix(0.05,0,0,0.05,78.2,0)" xlink:href="#p"/><use transform="matrix(0.05,0,0,0.05,84.15,0)" xlink:href="#x"/><use transform="matrix(0.05,0,0,0.05,94.15,0)" xlink:href="#v"/><use transform="matrix(0.05,0,0,0.05,104.15,0)" xlink:href="#x"/><use transform="matrix(0.05,0,0,0.05,114.15,0)" xlink:href="#K"/><use transform="matrix(0.05,0,0,0.05,123.15,0)" xlink:href="#o"/><use transform="matrix(0.05,0,0,0.05,133.15,0)" xlink:href="#D"/></g><g id="j"><use transform="matrix(0.05,0,0,0.05,0,0)" xlink:href="#P"/><use transform="matrix(0.05,0,0,0.05,10.3,0)" xlink:href="#p"/><use transform="matrix(0.05,0,0,0.05,16.25,0)" xlink:href="#o"/><use transform="matrix(0.05,0,0,0.05,26.25,0)" xlink:href="#H"/><use transform="matrix(0.05,0,0,0.05,36.25,0)" xlink:href="#E"/><use transform="matrix(0.05,0,0,0.05,40.2,0)" xlink:href="#A"/><use transform="matrix(0.05,0,0,0.05,50.2,0)" xlink:href="#I"/></g><g id="k"><use transform="matrix(0.05,0,0,0.05,0,0)" xlink:href="#J"/><use transform="matrix(0.05,0,0,0.05,12,0)" xlink:href="#o"/><use transform="matrix(0.05,0,0,0.05,22,0)" xlink:href="#p"/><use transform="matrix(0.05,0,0,0.05,27.950000000000003,0)" xlink:href="#s"/><use transform="matrix(0.05,0,0,0.05,32.95,0)" xlink:href="#E"/><use transform="matrix(0.05,0,0,0.05,36.900000000000006,0)" xlink:href="#F"/><use transform="matrix(0.05,0,0,0.05,45.900000000000006,0)" xlink:href="#E"/><use transform="matrix(0.05,0,0,0.05,49.85000000000001,0)" xlink:href="#v"/><use transform="matrix(0.05,0,0,0.05,59.85,0)" xlink:href="#o"/><use transform="matrix(0.05,0,0,0.05,69.85000000000001,0)" xlink:href="#A"/><use transform="matrix(0.05,0,0,0.05,79.85000000000001,0)" xlink:href="#s"/><use transform="matrix(0.05,0,0,0.05,84.85000000000001,0)" xlink:href="#K"/></g><g id="l"><use transform="matrix(0.05,0,0,0.05,0,0)" xlink:href="#C"/><use transform="matrix(0.05,0,0,0.05,12,0)" xlink:href="#F"/><use transform="matrix(0.05,0,0,0.05,21,0)" xlink:href="#F"/><use transform="matrix(0.05,0,0,0.05,30,0)" xlink:href="#r"/><use transform="matrix(0.05,0,0,0.05,40,0)" xlink:href="#v"/><use transform="matrix(0.05,0,0,0.05,50,0)" xlink:href="#s"/></g><g id="m"><use transform="matrix(0.05,0,0,0.05,0,0)" xlink:href="#C"/><use transform="matrix(0.05,0,0,0.05,12,0)" xlink:href="#K"/><use transform="matrix(0.05,0,0,0.05,21,0)" xlink:href="#K"/><use transform="matrix(0.05,0,0,0.05,30,0)" xlink:href="#r"/><use transform="matrix(0.05,0,0,0.05,40,0)" xlink:href="#s"/></g></defs></g></svg>